<svg xmlns="http://www.w3.org/2000/svg" id="Layer_1" data-name="Layer 1" viewBox="0 0 841.89 595.28"><defs><style>      .cls-1 {        fill: #ca942f;      }    </style></defs><g><path class="cls-1" d="m346.5,326.71c1.73,0,3.34.43,4.64,1.16v2.36c-1.23-.91-2.91-1.52-4.66-1.52-3.75,0-6.39,2.82-6.39,6.48s2.64,6.48,6.57,6.48c1.82,0,3.43-.61,4.73-1.66v2.39c-1.32.84-3.11,1.27-4.84,1.27-5,0-8.62-3.62-8.62-8.43s3.41-8.53,8.57-8.53Z"></path><path class="cls-1" d="m362.32,326.71c4.77,0,8.37,3.71,8.37,8.48s-3.59,8.48-8.37,8.48-8.37-3.71-8.37-8.48,3.59-8.48,8.37-8.48Zm0,14.96c3.59,0,6.21-2.86,6.21-6.48s-2.61-6.48-6.21-6.48-6.21,2.86-6.21,6.48,2.61,6.48,6.21,6.48Z"></path><path class="cls-1" d="m381.45,326.71c4.77,0,8.37,3.71,8.37,8.48s-3.59,8.48-8.37,8.48-8.37-3.71-8.37-8.48,3.59-8.48,8.37-8.48Zm0,14.96c3.59,0,6.21-2.86,6.21-6.48s-2.61-6.48-6.21-6.48-6.21,2.86-6.21,6.48,2.61,6.48,6.21,6.48Z"></path><path class="cls-1" d="m393.14,326.96h4.3c1.75,0,3.43.07,4.87.86,1.43.8,2.39,2.14,2.39,4.07s-.91,3.3-2.23,4.09c-1.43.86-3.34.93-5.46.93h-1.71v6.5h-2.16v-16.46Zm4.14,8.07c1.93,0,3.02-.07,3.93-.61.82-.5,1.32-1.32,1.32-2.43,0-1.23-.59-2.07-1.52-2.55-1-.5-2.21-.52-3.75-.52h-1.96v6.12h1.98Z"></path><path class="cls-1" d="m407.85,326.96h9.5v1.96h-7.34v5h6.43v1.89h-6.43v5.66h7.55v1.96h-9.71v-16.46Z"></path><path class="cls-1" d="m420.95,326.96h4.46c1.66,0,3.25.07,4.59.82,1.36.75,2.27,2.02,2.27,3.84s-.86,3.12-2.11,3.87c-.59.36-1.21.57-1.89.68l5.28,7.25h-2.62l-5.02-7.05h-2.8v7.05h-2.16v-16.46Zm4.96,7.64c1.46,0,2.48-.18,3.23-.75.61-.46.98-1.14.98-2.05,0-1.05-.48-1.86-1.34-2.34-.89-.48-1.93-.54-3.52-.54h-2.14v5.68h2.8Z"></path><path class="cls-1" d="m441.37,326.96h2.07l6.8,16.46h-2.32l-1.84-4.59h-7.41l-1.86,4.59h-2.21l6.78-16.46Zm-1.96,9.98h5.91l-1.34-3.41c-.52-1.32-1.07-2.73-1.57-4.07h-.04c-.5,1.34-1.05,2.73-1.61,4.14l-1.34,3.34Z"></path><path class="cls-1" d="m452.77,343.42v-16.46h2.05l6.89,9.14c.96,1.25,1.91,2.55,2.84,3.84l.05-.02c-.02-1.43-.05-3.09-.05-4.68v-8.28h2.09v16.46h-2.05l-6.89-9.14c-.96-1.25-1.91-2.55-2.84-3.84l-.05.02c.02,1.43.05,3.09.05,4.68v8.28h-2.09Z"></path><path class="cls-1" d="m475.03,328.92h-5.52v-1.96h13.21v1.96h-5.52v14.5h-2.16v-14.5Z"></path><path class="cls-1" d="m485.58,326.96h9.5v1.96h-7.34v5h6.43v1.89h-6.43v5.66h7.55v1.96h-9.71v-16.46Z"></path><path class="cls-1" d="m509.8,326.96h2.07l6.8,16.46h-2.32l-1.84-4.59h-7.41l-1.86,4.59h-2.21l6.78-16.46Zm-1.96,9.98h5.91l-1.34-3.41c-.52-1.32-1.07-2.73-1.57-4.07h-.04c-.5,1.34-1.05,2.73-1.61,4.14l-1.34,3.34Z"></path><path class="cls-1" d="m521.19,326.96h4.52c2.18,0,4.16.34,5.82,1.34,2.36,1.43,3.68,3.96,3.68,6.82s-1.18,5.16-3.27,6.64c-1.75,1.23-3.93,1.66-6.78,1.66h-3.98v-16.46Zm4.32,14.51c1.98,0,3.57-.25,4.89-1.09,1.57-1,2.66-2.86,2.66-5.18s-1.16-4.16-2.64-5.14c-1.43-.96-3.18-1.14-4.96-1.14h-2.12v12.55h2.16Z"></path><path class="cls-1" d="m343.88,352.12h2.07l6.8,16.46h-2.32l-1.84-4.59h-7.41l-1.86,4.59h-2.21l6.77-16.46Zm-1.96,9.98h5.91l-1.34-3.41c-.52-1.32-1.07-2.73-1.57-4.07h-.05c-.5,1.34-1.05,2.73-1.61,4.14l-1.34,3.34Z"></path><path class="cls-1" d="m354.78,360.83v-8.71h2.16v8.48c0,2.02.14,3.3.64,4.25.57,1.07,1.75,1.98,3.91,1.98,2,0,3.23-.77,3.87-1.98.52-.98.61-2.3.61-4.16v-8.57h2.09v8.46c0,2.39-.14,4.23-1.09,5.68-1.05,1.59-3.02,2.57-5.57,2.57s-4.5-1-5.52-2.57c-.96-1.48-1.09-3.39-1.09-5.43Z"></path><path class="cls-1" d="m379.9,351.87c2.14,0,3.87.64,5.05,1.36v2.46c-1.32-1.09-3.14-1.82-5.09-1.82-3.87,0-6.48,2.86-6.48,6.48s2.46,6.53,6.55,6.53c1.27,0,2.46-.3,3.36-.77v-3.84h-3.68v-1.89h5.84v6.8c-1.46,1-3.59,1.66-5.71,1.66-4.87,0-8.53-3.55-8.53-8.43s3.57-8.53,8.69-8.53Z"></path><path class="cls-1" d="m389.41,352.12h9.5v1.96h-7.34v5h6.43v1.89h-6.43v5.66h7.55v1.96h-9.71v-16.46Z"></path><path class="cls-1" d="m402.51,368.58v-16.46h2.05l6.89,9.14c.95,1.25,1.91,2.55,2.84,3.84l.05-.02c-.02-1.43-.05-3.09-.05-4.68v-8.28h2.09v16.46h-2.05l-6.89-9.14c-.96-1.25-1.91-2.55-2.84-3.84l-.05.02c.02,1.43.05,3.09.05,4.68v8.28h-2.09Z"></path><path class="cls-1" d="m420.63,352.12h4.52c2.18,0,4.16.34,5.82,1.34,2.36,1.43,3.68,3.96,3.68,6.82s-1.18,5.16-3.27,6.64c-1.75,1.23-3.93,1.66-6.78,1.66h-3.98v-16.46Zm4.32,14.51c1.98,0,3.57-.25,4.89-1.09,1.57-1,2.66-2.86,2.66-5.18s-1.16-4.16-2.64-5.14c-1.43-.96-3.18-1.14-4.96-1.14h-2.12v12.55h2.16Z"></path><path class="cls-1" d="m442.4,352.12h2.07l6.8,16.46h-2.32l-1.84-4.59h-7.41l-1.86,4.59h-2.21l6.78-16.46Zm-1.96,9.98h5.91l-1.34-3.41c-.52-1.32-1.07-2.73-1.57-4.07h-.04c-.5,1.34-1.05,2.73-1.61,4.14l-1.34,3.34Z"></path><path class="cls-1" d="m458.09,358.97c-.75-1.07-1.48-2.16-2.21-3.25l-.05.02c.02.98.05,2.23.05,3.57v9.28h-2.09v-16.46h2.09l5.84,8.37,5.84-8.37h2.07v16.46h-2.16v-9.28c0-1.34.02-2.59.05-3.57l-.05-.02c-.73,1.09-1.46,2.18-2.21,3.25l-3.59,5.14-3.59-5.14Z"></path><path class="cls-1" d="m477.49,352.12h2.32l3.5,9.23c.55,1.43,1.07,2.84,1.61,4.37h.05c.55-1.5,1.09-2.96,1.66-4.43l3.52-9.16h2.21l-6.32,16.46h-2.21l-6.34-16.46Z"></path><path class="cls-1" d="m498.13,352.12h2.07l6.8,16.46h-2.32l-1.84-4.59h-7.41l-1.86,4.59h-2.21l6.78-16.46Zm-1.96,9.98h5.91l-1.34-3.41c-.52-1.32-1.07-2.73-1.57-4.07h-.04c-.5,1.34-1.05,2.73-1.61,4.14l-1.34,3.34Z"></path><path class="cls-1" d="m509.53,352.12h2.16v14.51h7.78v1.96h-9.94v-16.46Z"></path><path class="cls-1" d="m529.33,351.87c4.77,0,8.37,3.71,8.37,8.48s-3.59,8.48-8.37,8.48-8.37-3.71-8.37-8.48,3.59-8.48,8.37-8.48Zm0,14.96c3.59,0,6.21-2.86,6.21-6.48s-2.62-6.48-6.21-6.48-6.21,2.86-6.21,6.48,2.61,6.48,6.21,6.48Z"></path><path class="cls-1" d="m541.03,352.12h4.46c1.66,0,3.25.07,4.59.82,1.36.75,2.27,2.02,2.27,3.84s-.86,3.12-2.11,3.87c-.59.36-1.21.57-1.89.68l5.28,7.25h-2.62l-5.02-7.05h-2.8v7.05h-2.16v-16.46Zm4.96,7.64c1.46,0,2.48-.18,3.23-.75.61-.46.98-1.14.98-2.05,0-1.05-.48-1.86-1.34-2.34-.89-.48-1.93-.54-3.52-.54h-2.14v5.68h2.8Z"></path><path class="cls-1" d="m556.28,352.12h9.5v1.96h-7.34v5h6.43v1.89h-6.43v5.66h7.55v1.96h-9.71v-16.46Z"></path><path class="cls-1" d="m573.68,358.97c-.75-1.07-1.48-2.16-2.21-3.25l-.05.02c.02.98.05,2.23.05,3.57v9.28h-2.09v-16.46h2.09l5.84,8.37,5.84-8.37h2.07v16.46h-2.16v-9.28c0-1.34.02-2.59.05-3.57l-.05-.02c-.73,1.09-1.46,2.18-2.21,3.25l-3.59,5.14-3.59-5.14Z"></path></g><path class="cls-1" d="m352.42,258.16c-8.61,0-15.32-5.62-15.32-15.5,0-9.25,5.53-16.31,16.36-16.31,2.36,0,5.85.36,8.16.95v9.2c-.95.54-2.72.82-4.08.82h-.63l-1.18-5.71c-1.09-.32-2.76-.54-4.03-.54-.82,0-1.59.05-2.18.18-.86.14-3.44,4.08-3.44,11.42s2.67,10.6,7.3,10.6c.95,0,2.13-.14,2.85-.32l1.13-5.48h.63c1.36,0,3.13.32,4.03.86v7.57c-2.22,1.4-6.03,2.27-9.61,2.27Z"></path><path class="cls-1" d="m381.43,258.16c-8.2,0-14.82-6.03-14.82-15.91s6.66-15.91,15-15.91,14.82,5.98,14.82,15.91-6.75,15.91-15,15.91Zm-.05-26.96c-3.31,0-5.8,2.08-5.8,11.06s2.49,11.06,6.07,11.06,5.8-2.31,5.8-11.06-2.63-11.06-6.07-11.06Z"></path><path class="cls-1" d="m415.01,258.16c-8.2,0-14.82-6.03-14.82-15.91s6.66-15.91,15-15.91,14.82,5.98,14.82,15.91-6.75,15.91-15,15.91Zm-.05-26.96c-3.31,0-5.8,2.08-5.8,11.06s2.49,11.06,6.07,11.06,5.8-2.31,5.8-11.06-2.63-11.06-6.07-11.06Z"></path><path class="cls-1" d="m448.01,245.61l-3.08.32v7.52l3.31.5v.5c0,1.22-.27,2.49-.82,3.26h-13.91l.41-3.76,2.81-.5v-22.39l-3.17-.5v-.5c0-1.22.32-2.49.82-3.26h13.23c7.52,0,11.42,3.13,11.42,8.97,0,5.12-3.17,8.97-11.01,9.83Zm-.95-14.59h-2.13v10.88l3.9-.23c1.18-1,1.9-3.17,1.9-5.66,0-3.22-1.18-4.99-3.67-4.99Z"></path><path class="cls-1" d="m462.37,257.71l.41-3.76,2.81-.5v-22.39l-3.17-.5v-.5c0-1.22.32-2.49.82-3.26h16.59l6.25-.45v8.84c-.91.54-2.72.86-4.03.86h-.63l-1.18-4.89h-6.43v8.88h9.29c.18.68.27,1.5.27,2.27s-.09,1.54-.27,2.31l-3.99-.36h-5.3v9.38l7.12-.5,1.13-4.89h.63c1.31,0,3.13.27,4.03.82v8.66h-24.34Z"></path><path class="cls-1" d="m513.09,258.48l-9.02-12.92-1.81.23v7.66l2.72.5v.5c0,1.31-.32,2.54-.82,3.26h-13.23l.41-3.76,2.81-.5v-22.39l-3.17-.5v-.5c0-1.22.32-2.49.82-3.26h13.64c7.48,0,11.33,3.13,11.33,8.84,0,3.22-1.68,6.07-4.71,7.39l6.8,13.05c-1.45,1.36-3.72,2.22-5.76,2.4Zm-8.2-27.46h-2.63v10.83l3.94-.18c1.45-1,2.31-3.17,2.31-5.62,0-3.4-1.22-5.03-3.63-5.03Z"></path><path class="cls-1" d="m550.84,254.45c0,1.22-.27,2.49-.77,3.26h-13.69l.36-3.76,3.35-.5-2.22-6.66-8.43.54-2.04,6.12,3.58.5v.5c0,1.22-.32,2.49-.82,3.26h-10.74l.41-3.76,1.86-.5,9.97-26.65,7.57-.45,9.43,27.1,2.17.5v.5Zm-16.81-19.76h-.41l-2.86,8.57h6.03l-2.76-8.57Z"></path><path class="cls-1" d="m575.72,234.78c-.95.54-2.36.86-3.72.86h-.59l-1-4.71c-1.09.05-2.85.09-3.26.14v22.43l3.17.5v.5c0,1.18-.27,2.49-.82,3.22h-13.73l.36-3.72,2.86-.5v-22.07c-1.13.05-2.9.09-3.31.14l-1.22,4.08h-.86c-1.36,0-2.76-.32-3.67-.86v-7.98h19.89l6.89-.45-1,8.43Z"></path><path class="cls-1" d="m593.94,254.45c0,1.22-.27,2.49-.77,3.26h-13.78l.41-3.76,2.81-.5v-22.39l-3.17-.5v-.5c0-1.22.32-2.49.82-3.26h13.78l-.41,3.76-2.81.5v22.39l3.13.5v.5Z"></path><path class="cls-1" d="m626.25,230.56l-1.59.5-9.61,26.65-7.12.45-9.52-27.1-1.9-.5v-.5c0-1.31.32-2.54.82-3.26h13.41l-.41,3.76-3.04.5,5.57,17.27h.41l5.57-17.27-3.08-.5v-.5c0-1.27.32-2.58.82-3.26h10.02l-.36,3.76Z"></path><path class="cls-1" d="m656.85,254.45c0,1.22-.27,2.49-.77,3.26h-13.69l.36-3.76,3.35-.5-2.22-6.66-8.43.54-2.04,6.12,3.58.5v.5c0,1.22-.32,2.49-.82,3.26h-10.74l.41-3.76,1.86-.5,9.97-26.65,7.57-.45,9.43,27.1,2.17.5v.5Zm-16.81-19.76h-.41l-2.86,8.57h6.03l-2.76-8.57Z"></path><path class="cls-1" d="m352.42,301.24c-8.61,0-15.32-5.62-15.32-15.5,0-9.25,5.53-16.31,16.36-16.31,2.36,0,5.85.36,8.16.95v9.2c-.95.54-2.72.82-4.08.82h-.63l-1.18-5.71c-1.09-.32-2.76-.54-4.03-.54-.82,0-1.59.05-2.18.18-.86.14-3.44,4.08-3.44,11.42s2.67,10.6,7.3,10.6c.95,0,2.13-.14,2.85-.32l1.13-5.48h.63c1.36,0,3.13.32,4.03.86v7.57c-2.22,1.4-6.03,2.27-9.61,2.27Z"></path><path class="cls-1" d="m381.43,301.24c-8.2,0-14.82-6.03-14.82-15.91s6.66-15.91,15-15.91,14.82,5.98,14.82,15.91-6.75,15.91-15,15.91Zm-.05-26.96c-3.31,0-5.8,2.08-5.8,11.06s2.49,11.06,6.07,11.06,5.8-2.31,5.8-11.06-2.63-11.06-6.07-11.06Z"></path><path class="cls-1" d="m440.16,297.52c0,1.22-.27,2.49-.82,3.26h-13.6l.41-3.76,3.17-.5c-.18-5.48-.59-16.68-.59-16.68h-.41l-7.98,20.94-3.67.45-7.98-21.39h-.36l-.77,16.68,3.53.5v.5c0,1.22-.32,2.49-.86,3.26h-10.92l.36-3.76,2.85-.5,1.22-22.39-3.17-.5v-.5c0-1.22.27-2.49.77-3.26h11.51l7.25,19.17,6.89-19.17h12.37l-.41,3.76-2.81.5s.54,14.91.82,22.39l3.17.5v.5Z"></path><path class="cls-1" d="m443.02,300.79l.41-3.76,2.81-.5v-22.39l-3.17-.5v-.5c0-1.22.32-2.49.82-3.26h16.59l6.25-.45v8.84c-.91.54-2.72.86-4.03.86h-.63l-1.18-4.89h-6.43v8.88h9.29c.18.68.27,1.5.27,2.27s-.09,1.54-.27,2.31l-3.99-.36h-5.3v9.38l7.11-.5,1.13-4.89h.63c1.31,0,3.13.27,4.03.82v8.66h-24.34Z"></path><path class="cls-1" d="m502.93,273.64l-2.49.5-.41,26.65-4.98.45-14.46-21.16h-.36v16.45l3.58.5v.5c0,1.31-.32,2.54-.82,3.26h-11.42l.41-3.76,2.76-.5s.27-14.91.45-22.39l-3.17-.5v-.5c0-1.22.27-2.49.82-3.26h10.24l11.6,18.04h.36v-13.78l-3.67-.5v-.5c0-1.22.27-2.49.77-3.26h11.19l-.41,3.76Z"></path><path class="cls-1" d="m520.75,297.52c0,1.22-.27,2.49-.77,3.26h-13.78l.41-3.76,2.81-.5v-22.39l-3.17-.5v-.5c0-1.22.32-2.49.82-3.26h13.78l-.41,3.76-2.81.5v22.39l3.13.5v.5Z"></path><path class="cls-1" d="m553.97,273.64l-2.17.5v16.36c0,6.8-4.4,10.74-12.51,10.74s-12.42-4.12-12.42-10.74v-16.36l-2.58-.5v-.5c0-1.22.32-2.49.82-3.26h13.23l-.36,3.76-2.95.5v17.31c0,3.26,1.81,4.49,5.71,4.49,3.58,0,5.67-1.22,5.67-4.49v-17.31l-3.35-.5v-.5c0-1.22.32-2.49.82-3.26h10.51l-.41,3.76Z"></path><path class="cls-1" d="m567.7,301.24c-3.04,0-5.94-.5-8.79-1.59v-7.57c.95-.54,2.72-.86,4.08-.86h.59l1.13,4.58c1,.5,2.4.77,3.85.77,1,0,1.95-.04,2.58-.27.32-.14.95-1.09.95-2.45,0-6.12-13.5-4.76-13.5-14.5,0-5.44,4.4-9.92,12.42-9.92,2.63,0,5.3.32,7.75.95v7.61c-.91.54-2.72.82-4.03.82h-.63l-1.13-4.21c-.82-.32-2.22-.5-3.35-.5-1,0-1.81.09-2.36.27-.41.14-1,1.09-1,2.31,0,5.39,13.46,4.35,13.46,14.59,0,5.89-4.8,9.97-12.01,9.97Z"></path><g><path class="cls-1" d="m239.85,394.39c-1.58,0-3.16-.04-4.73-.12,1.57.12,3.15.16,4.73.16s3.15-.04,4.72-.16c-1.57.07-3.13.12-4.72.12Z"></path><path class="cls-1" d="m306.85,221.41l-12.97-5.74-2.19-.98c-32.94-14.58-70.73-14.58-103.68,0l-2.16.95-12.99,5.77c-1.21.53-1.98,1.73-1.98,3.05v100.35c0,19.5,7.98,37.16,20.81,49.81,7.51,7.39,16.64,13.06,26.82,16.41,5.28,1.74,10.84,2.86,16.61,3.25,1.57.07,3.15.12,4.73.12s3.15-.04,4.72-.12c16.84-1.16,32.03-8.44,43.42-19.65,12.84-12.66,20.84-30.32,20.84-49.82v-100.35c0-1.32-.78-2.52-1.98-3.05Zm-4.69,103.4c0,34.72-27.95,62.97-62.31,62.97s-62.31-28.25-62.31-62.97v-98.18l13.17-5.84c31.22-13.81,67.04-13.82,98.26,0l13.17,5.84v98.18Z"></path></g><g><path class="cls-1" d="m284.05,254.76h-15.2c-10.49,0-19.08,8.24-19.66,18.58h2.23c.58-9.11,8.17-16.34,17.43-16.34h15.2c.62,0,1.11-.5,1.11-1.11s-.49-1.13-1.11-1.13Z"></path><path class="cls-1" d="m284.05,263.43h-15.2c-5.7,0-10.41,4.35-10.97,9.9h2.25c.55-4.32,4.25-7.67,8.72-7.67h15.2c.62,0,1.11-.49,1.11-1.11s-.49-1.11-1.11-1.11Z"></path><path class="cls-1" d="m230.45,273.33h-2.22c-.58-9.11-8.18-16.33-17.45-16.33h-15.19c-.62,0-1.12-.51-1.12-1.12s.5-1.12,1.12-1.12h15.19c10.5,0,19.1,8.24,19.67,18.57Z"></path><path class="cls-1" d="m221.77,273.33h-2.25c-.56-4.31-4.27-7.67-8.74-7.67h-15.19c-.62,0-1.12-.49-1.12-1.11s.5-1.12,1.12-1.12h15.19c5.72,0,10.43,4.35,10.99,9.9Z"></path><path class="cls-1" d="m292.81,231.52c-33.67-15.47-72.3-15.47-105.97,0-.79.36-1.31,1.15-1.31,2.03v91.87c0,29.92,24.36,54.28,54.29,54.28s54.29-24.36,54.29-54.28v-91.87c0-.88-.51-1.67-1.3-2.03Zm-67.68-6.24c9.76-1.19,19.63-1.19,29.38,0l-.02.05c-2.43,5.81-8.19,9.79-14.67,9.79s-12.27-4-14.69-9.83c-.07.01-.12.01-.13.01.02-.01.06-.01.13-.02Zm23.63,9.71c1.62-.93,3.09-2.09,4.35-3.45l14.94,13.9c-4.9.27-9.49,1.77-13.44,4.2h-.01l-5.84-14.65Zm4.07,15.83c-6.38,4.57-10.85,11.67-11.91,19.81l-.04-33.3c2.11-.12,4.14-.61,6.01-1.41l5.94,14.9Zm-20.05-14.89c1.88.8,3.91,1.28,6.02,1.4l.04,33.3c-1.09-8.33-5.39-15.04-12-19.79l5.94-14.91Zm-7.71,13.73c-3.97-2.43-8.56-3.94-13.47-4.22l14.95-13.88c1.26,1.35,2.74,2.52,4.35,3.44l-5.83,14.66Zm-35.07,75.76v-38.89h48.7v43.69l-5.07-5.06c-.2-.22-.49-.33-.78-.33h-5.6v-2.38h2.4c.12,0,.23-.01.33-.04,2.15-.68,3.6-2.64,3.6-4.89,0-1.59-.73-3.05-1.91-4,1.18-.95,1.91-2.39,1.91-3.98,0-1.97-1.1-3.72-2.82-4.57v-3.59c0-2.14-1.43-3.96-3.39-4.54-.01-.1-.06-.2-.11-.29-2.98-4.87-7.96-7.78-13.33-7.78s-10.37,2.91-13.33,7.78c-.06.09-.1.17-.12.26h0c-2.02.53-3.51,2.39-3.51,4.57v3.59c-1.71.85-2.82,2.6-2.82,4.57,0,1.59.74,3.03,1.92,3.98-1.18.95-1.92,2.41-1.92,4,0,2.25,1.46,4.21,3.61,4.89.1.03.22.04.33.04h2.49v2.38h-5.69c-.3,0-.58.11-.79.33l-3.97,3.97v-.02c-.09-1.22-.13-2.44-.13-3.69Zm31.58-2.99l-4.27-4.28c-.22-.21-.5-.33-.8-.33h-5.04c-.29,0-.58.12-.78.33l-4.29,4.28c-.2.21-.32.49-.32.79v5.19h-3.27v-6.71l8.12-8.95,2.3,1.65c.19.14.42.21.65.21s.45-.07.63-.2l2.39-1.66,8.12,8.95v6.71h-3.11v-5.19c0-.3-.12-.58-.33-.79Zm-23.16-10.15c-1.22-.37-2.03-1.48-2.03-2.74s.81-2.39,2.03-2.76c.47-.14.78-.58.78-1.07v-4.33c0-.96.54-1.78,1.32-2.19v15c0,.21.06.43.18.6l2.23,3.45-1.8,1.98h-2.86c-1.13-.42-1.88-1.48-1.88-2.7s.81-2.37,2.03-2.75c.47-.14.78-.58.78-1.07v-.35c0-.49-.31-.92-.78-1.07Zm26.66-13.51v3.72h-7.98c-.62,0-1.11.5-1.11,1.11v7.06l-2.1,1.47-2.04-1.46v-7.07c0-.61-.51-1.11-1.12-1.11h-7.98v-3.72h22.33Zm-21.79-2.23c2.6-3.48,6.49-5.52,10.64-5.52s8.02,2.04,10.62,5.52h-21.26Zm14.93,9.39v-1.21h6.86v9.15l-1.65,2.75-5.21-5.75v-2.7h3.14v-2.24h-3.14Zm-8.6-1.21v1.21h-3.1v2.24h3.1v2.7l-5.14,5.66-1.73-2.67v-9.14h6.87Zm15.38,13.62l2.14-3.58c.11-.18.17-.37.17-.57v-14.95c.73.43,1.22,1.23,1.22,2.14v4.33c0,.49.32.93.79,1.07,1.21.37,2.02,1.49,2.02,2.76s-.81,2.37-2.02,2.74c-.47.15-.79.58-.79,1.07v.35c0,.49.32.93.79,1.07,1.21.38,2.02,1.49,2.02,2.75s-.74,2.28-1.88,2.7h-2.75l-1.71-1.88Zm-31.96,24.22h15.5v1.95c0,5.46-1.67,10.81-4.74,15.29-4.68-4.9-8.38-10.75-10.76-17.24Zm24.75,27.54c-4.48-2.22-8.59-5.11-12.18-8.5,3.53-4.97,5.45-10.98,5.45-17.09v-1.95l19.67.03c-.21,2.52-1.1,5.08-2.33,7.62-.5-2.31-1.99-4.41-4.28-5.56l-3.13-1.59c-.55-.28-1.21-.05-1.5.5-.98,1.93-1.15,4.13-.46,6.18.68,2.06,2.1,3.74,4.04,4.72l2.33,1.19c-.43.75-.89,1.49-1.34,2.22-1.81,2.96-3.68,6.02-4.92,8.97l-1.35,3.26Zm8.33-16.61l-2.04-1.02c-1.41-.72-2.45-1.92-2.94-3.42-.37-1.13-.38-2.33-.07-3.45l2.04,1.05c2.56,1.28,3.76,4.18,3.01,6.84Zm12.21,21.72c-3.75-.11-7.42-.64-10.92-1.53l7.95-12.53c1.16-1.84,2.16-3.76,2.97-5.76v19.82Zm0-27.93c-.75,4.49-2.39,8.8-4.86,12.67l-8.3,13.09c-1.84-.57-3.64-1.23-5.36-2h-.01l1.4-3.34c1.17-2.79,2.92-5.65,4.76-8.67,3.26-5.31,6.63-10.8,7.01-16.47h5.36v4.72Zm.37-6.91h-46.4c-.86-2.7-1.5-5.52-1.85-8.39h0s4.91-4.92,4.91-4.92h5.22v2.46c0,.61.49,1.12,1.11,1.12h4.39v2.64l-1.18.89,1.34,1.78,1.63-1.22c.28-.2.45-.54.45-.89v-10.16l3.61-3.62h4.12l3.63,3.62v10.16c0,.29.11.58.33.79l1.21,1.22,1.59-1.59-.9-.88v-2.74h4.23c.61,0,1.11-.51,1.11-1.12v-2.46h5.14l6.31,6.32v6.99Zm2.35,34.86h-.01v-19.86c.81,2.01,1.81,3.93,2.99,5.78l7.97,12.58c-3.52.88-7.17,1.4-10.95,1.5Zm13.21-2.13h-.01l-8.34-13.15c-2.48-3.9-4.12-8.23-4.87-12.75v-4.64h6.33c.38,5.67,3.74,11.16,6.99,16.47,1.86,3.02,3.61,5.88,4.77,8.67l1.28,3.07c-1.98.91-4.04,1.68-6.15,2.33Zm8.17-3.29l-1.24-2.97c-.71-1.71-1.64-3.45-2.64-5.19.14,0,.28-.05.41-.12l3.14-1.58c3.99-2.01,5.59-6.92,3.58-10.9-.29-.55-.95-.78-1.51-.49l-3.12,1.58c-3.18,1.61-4.84,5.03-4.38,8.37-.13-.21-.26-.43-.39-.64-3.09-5.03-6.25-10.21-6.68-15.28l19.68-.03v1.95c0,5.95,1.81,11.79,5.17,16.69-3.54,3.43-7.59,6.34-12.02,8.61Zm-.39-17.68l2.06-1.02c.74,2.64-.46,5.56-3.01,6.84l-2.04,1.04c-.75-2.65.44-5.55,2.99-6.86Zm14.21,7.24s-.01,0-.01.01c-2.88-4.4-4.45-9.59-4.45-14.87v-1.95h14.8c-2.3,6.29-5.85,12-10.34,16.81Zm13.38-33.95c0,5.2-.79,10.22-2.28,14.94h0s-46.41.01-46.41.01v-53.84h48.7v38.89Zm0-41.12h-99.63v-49.31c10.58-4.7,21.64-7.84,32.86-9.41.05,0,.07,0,.08,0-.01,0-.04,0-.08.02.58,1.57,1.39,3.04,2.36,4.36l-16.49,15.31.12.13h-13.26c-.62,0-1.12.5-1.12,1.12s.5,1.11,1.12,1.11h14.33c14.43,0,26.22,11.44,26.81,25.71h-41.15c-.61.01-1.11.51-1.11,1.11s.5,1.13,1.11,1.13h88.47c.62,0,1.11-.51,1.11-1.13s-.49-1.1-1.11-1.1h-41.13c.59-14.28,12.39-25.71,26.8-25.71h14.33c.62,0,1.11-.51,1.11-1.12s-.49-1.11-1.11-1.11h-14.75c.14,0,.28,0,.42,0h1.34l-16.63-15.46c.96-1.31,2.36-4.36,2.36-4.36,11.23,1.57,22.28,4.72,32.84,9.42v49.31Z"></path><path class="cls-1" d="m281.39,297.28c-1.1-1.11-2.58-1.73-4.15-1.74-1.58-.07-3.05.6-4.16,1.7-.11.11-.18.23-.28.34-2.31-.59-4.27-.33-5.8.78-1.06.77-1.89,1.9-2.48,3.42-.58-1.52-1.39-2.66-2.44-3.44-1.51-1.12-3.44-1.39-5.75-.85-.1-.11-.17-.23-.28-.34-2.28-2.3-6.01-2.32-8.31-.04-2.3,2.28-2.32,6.01-.04,8.31.1.1.22.18.33.28-.58,2.29-.32,4.23.78,5.76.77,1.06,1.9,1.89,3.42,2.48-1.53.58-2.67,1.39-3.45,2.45-1.12,1.52-1.4,3.46-.84,5.78-.11.09-.23.17-.33.27-1.11,1.11-1.73,2.58-1.74,4.15,0,1.57.6,3.05,1.7,4.16,1.15,1.16,2.66,1.74,4.18,1.74s2.99-.56,4.13-1.7c.11-.11.2-.25.3-.37,2.29.56,4.23.3,5.75-.81,1.05-.77,1.87-1.89,2.46-3.4.58,1.53,1.39,2.67,2.45,3.45,1.01.75,2.21,1.12,3.59,1.12.67,0,1.4-.12,2.16-.3.11.13.19.27.31.39,1.15,1.16,2.66,1.74,4.18,1.74s2.99-.56,4.14-1.7c2.3-2.28,2.32-6.01.04-8.31-.12-.12-.25-.21-.37-.31.58-2.29.32-4.23-.78-5.76-.77-1.06-1.9-1.89-3.42-2.48,1.52-.58,2.66-1.38,3.44-2.43,1.12-1.51,1.4-3.44.86-5.73.12-.1.25-.19.37-.3,2.3-2.28,2.32-6.01.04-8.31Zm-4.18.49h.02c.97,0,1.89.39,2.57,1.08,1.42,1.43,1.4,3.74-.02,5.16-.3.3-.64.52-1.01.7-.06.03-.12.07-.19.09-.2.08-.41.14-.62.19-.07.02-.15.02-.22.03-.14.02-.29.04-.44.04-.1,0-.19,0-.29-.01-.13,0-.26-.02-.39-.04-.1-.02-.19-.03-.28-.06-.13-.03-.25-.07-.37-.12-.08-.03-.16-.06-.24-.09-.16-.07-.31-.15-.45-.25-.04-.02-.08-.04-.11-.07-.19-.13-.37-.28-.54-.44-.17-.17-.31-.35-.44-.54-.02-.03-.03-.06-.05-.09-.1-.15-.18-.31-.25-.48-.03-.07-.06-.15-.08-.22-.05-.13-.09-.27-.12-.4-.02-.08-.04-.17-.05-.25-.02-.15-.04-.29-.04-.44,0-.07,0-.14,0-.22,0-.19.02-.38.06-.56,0-.03,0-.07.01-.1.14-.69.49-1.33,1-1.84.69-.68,1.6-1.06,2.57-1.06Zm-27.9.94c.71-.7,1.64-1.05,2.57-1.05s1.88.36,2.59,1.08h0c.25.25.44.54.6.84.12.23.22.46.29.7.02.08.06.16.07.25.03.12.04.25.05.38,0,.09.02.18.03.27,0,.13,0,.27-.01.4,0,.08-.01.16-.02.24-.02.14-.05.28-.08.42-.02.06-.04.13-.06.19-.05.14-.1.28-.16.42-.03.06-.06.12-.1.18-.07.13-.14.26-.22.38-.05.08-.12.15-.18.22-.08.09-.15.19-.23.27-.07.07-.14.12-.21.18-.1.08-.19.17-.3.24-.09.06-.19.11-.29.17-.09.05-.18.1-.28.15-.11.05-.22.09-.34.12-.09.03-.18.06-.28.08-.12.03-.23.05-.35.07-.1.01-.2.02-.3.03-.12,0-.24.01-.36,0-.1,0-.19-.02-.28-.03-.13-.02-.26-.03-.39-.06-.02,0-.04-.01-.06-.02-.38-.09-.75-.25-1.08-.47-.01,0-.03,0-.04-.01-.21-.14-.41-.3-.59-.48-.69-.69-1.06-1.61-1.06-2.59,0-.97.39-1.89,1.08-2.57Zm1.31,11.46c-.61-.84-.8-1.94-.57-3.29.11.04.22.06.34.09.14.04.27.08.41.1.3.06.61.09.92.09.04,0,.09.01.13.01,0,0,.02,0,.03,0,.09,0,.17-.02.26-.03.2,0,.41-.03.61-.06.14-.02.27-.04.41-.07.29-.06.58-.15.85-.26.12-.05.23-.1.34-.16.2-.09.39-.19.58-.31.11-.06.21-.13.31-.2.23-.16.45-.34.66-.54.04-.03.08-.06.12-.09.03-.03.06-.07.09-.11.2-.21.38-.42.54-.65.08-.12.16-.24.23-.36.1-.16.18-.32.26-.49.07-.14.14-.28.2-.43.1-.26.18-.52.24-.79.04-.17.06-.34.09-.51.02-.17.04-.33.05-.5,0-.11.03-.21.03-.32,0-.05-.01-.11-.01-.16,0-.29-.03-.59-.08-.88-.02-.13-.06-.26-.09-.4-.03-.12-.05-.24-.08-.36,1.35-.21,2.43-.02,3.27.61,1.7,1.26,2.6,4.42,2.61,9.13-.23,2.96-3.24,3.54-3.65,3.6-4.71-.05-7.85-.99-9.09-2.71Zm-1.46,19.03c-.69-.69-1.06-1.61-1.06-2.58,0-.97.39-1.89,1.08-2.57.19-.19.41-.35.63-.49.51-.32,1.07-.49,1.65-.53.04,0,.08,0,.12-.01.17,0,.34,0,.51.02.04,0,.08,0,.12.01.17.02.34.05.51.1.03,0,.06.02.09.03.17.05.33.11.49.18.04.02.08.05.13.07.14.07.28.15.41.24.17.12.34.26.5.41.16.16.29.33.41.51.08.11.14.24.2.36.03.06.07.12.1.19.06.14.11.29.16.43.02.05.03.11.05.16.04.15.07.29.09.44,0,.07.02.15.02.22.01.13.02.27.01.4,0,.12-.02.24-.04.35-.01.09-.02.19-.04.28-.15.68-.49,1.31-.99,1.81-1.43,1.42-3.74,1.41-5.16-.03Zm30.49.15c-1.43,1.42-3.74,1.41-5.16-.02-.2-.2-.36-.42-.5-.64,0,0,0-.01,0-.02-.15-.25-.26-.51-.35-.77-.05-.14-.09-.28-.12-.42-.01-.05-.01-.1-.02-.15-.03-.18-.05-.36-.05-.54,0-.04,0-.08,0-.13,0-.18.02-.37.05-.55,0-.05.02-.09.03-.14.04-.17.09-.34.15-.5.02-.05.04-.11.06-.16.07-.16.15-.31.24-.45.03-.05.06-.1.09-.15.13-.19.27-.37.44-.54.16-.16.34-.31.53-.43.04-.03.09-.05.14-.08.15-.09.3-.18.47-.25.04-.02.09-.03.13-.05.18-.07.36-.12.54-.16.03,0,.06-.01.09-.02.21-.04.43-.06.65-.06.02,0,.03,0,.05,0,.48,0,.94.1,1.37.27.1.04.2.11.31.16.32.17.63.38.9.64,1.42,1.43,1.4,3.74-.02,5.16Zm-1.36-11.5c.61.85.8,1.95.57,3.3-.18-.06-.36-.1-.54-.14-.02,0-.05-.01-.07-.02-.76-.16-1.54-.16-2.29,0,0,0-.02,0-.03,0-.36.07-.71.18-1.05.32-.03.01-.07.03-.1.05-.27.12-.54.26-.8.42-.08.05-.15.09-.22.15-.27.19-.54.4-.79.64,0,0-.01,0-.02.01,0,0,0,0,0,0-.26.26-.48.53-.68.82-.05.07-.09.13-.13.2-.39.61-.66,1.28-.8,1.98,0,.01,0,.03,0,.04-.07.36-.11.72-.11,1.09,0,0,0,0,0,.01,0,.37.03.73.1,1.1,0,.03.02.07.02.1.04.19.08.38.14.56-1.36.22-2.45.03-3.3-.6-1.7-1.25-2.6-4.4-2.61-9.1,0,0,0-.02,0-.03.21-2.88,3.04-3.52,3.6-3.61,4.73.05,7.88.99,9.13,2.71Zm.65-10.81c.21,1.34,0,2.42-.62,3.26-1.27,1.71-4.45,2.61-9.19,2.61-.01,0-.02,0-.03,0-.03,0-.06-.01-.1,0-1.83.23-5.37,1.72-5.66,5.68,0,0,0,0,0,0,0,.03-.02.05-.02.08-.04,4.74-.98,7.9-2.7,9.15-.85.62-1.93.82-3.27.59.29-.92.34-1.89.17-2.82,0-.03-.01-.07-.02-.1-.07-.35-.16-.69-.3-1.02-.02-.04-.04-.07-.05-.11-.12-.27-.25-.54-.41-.79-.05-.09-.11-.17-.16-.26-.2-.29-.41-.56-.66-.82-.23-.23-.49-.44-.75-.62-.13-.09-.25-.17-.39-.25-.13-.08-.27-.15-.4-.22-.59-.3-1.22-.49-1.88-.57-.1-.01-.21-.02-.31-.03-.14-.01-.27-.04-.41-.04,0,0-.02,0-.03,0-.52,0-1.03.09-1.52.22-.08.02-.17.03-.25.06-.23-1.37-.03-2.46.6-3.31,1.26-1.71,4.45-2.62,9.2-2.62,0,0,0,0,0,0,.05,0,.09,0,.14,0,1.83-.23,5.37-1.72,5.66-5.68,0-.01,0-.02,0-.04,0-.01,0-.02,0-.04.04-4.75.98-7.93,2.71-9.18.86-.62,1.95-.81,3.32-.57-.07.21-.11.41-.15.62,0,.02-.01.04-.01.06-.07.34-.1.69-.1,1.03,0,.08,0,.15,0,.23,0,.27.03.53.07.8.01.09.03.18.04.27.07.33.16.65.28.96.02.05.04.09.06.14.12.28.26.56.43.82.04.06.07.12.11.18.2.3.42.59.68.86.26.26.55.49.85.69.04.03.08.05.12.08,1.29.85,2.84,1.15,4.33.85.03,0,.05-.01.07-.02.18-.04.36-.07.54-.13Z"></path></g></svg>