<svg xmlns="http://www.w3.org/2000/svg" id="Layer_1" data-name="Layer 1" viewBox="0 0 137.94999 190.67499" width="137.95" height="190.675"><defs id="defs717"><style id="style715">      .cls-1 {        fill: #ca942f;      }    </style></defs><g id="g951" transform="translate(-170.88,-203.755)"><g id="g817"><path class="cls-1" d="m 239.85,394.39 c -1.58,0 -3.16,-0.04 -4.73,-0.12 1.57,0.12 3.15,0.16 4.73,0.16 1.58,0 3.15,-0.04 4.72,-0.16 -1.57,0.07 -3.13,0.12 -4.72,0.12 z" id="path813"></path><path class="cls-1" d="m 306.85,221.41 -12.97,-5.74 -2.19,-0.98 c -32.94,-14.58 -70.73,-14.58 -103.68,0 l -2.16,0.95 -12.99,5.77 c -1.21,0.53 -1.98,1.73 -1.98,3.05 v 100.35 c 0,19.5 7.98,37.16 20.81,49.81 7.51,7.39 16.64,13.06 26.82,16.41 5.28,1.74 10.84,2.86 16.61,3.25 1.57,0.07 3.15,0.12 4.73,0.12 1.58,0 3.15,-0.04 4.72,-0.12 16.84,-1.16 32.03,-8.44 43.42,-19.65 12.84,-12.66 20.84,-30.32 20.84,-49.82 V 224.46 c 0,-1.32 -0.78,-2.52 -1.98,-3.05 z m -4.69,103.4 c 0,34.72 -27.95,62.97 -62.31,62.97 -34.36,0 -62.31,-28.25 -62.31,-62.97 v -98.18 l 13.17,-5.84 c 31.22,-13.81 67.04,-13.82 98.26,0 l 13.17,5.84 v 98.18 z" id="path815"></path></g><g id="g831"><path class="cls-1" d="m 284.05,254.76 h -15.2 c -10.49,0 -19.08,8.24 -19.66,18.58 h 2.23 C 252,264.23 259.59,257 268.85,257 h 15.2 c 0.62,0 1.11,-0.5 1.11,-1.11 0,-0.61 -0.49,-1.13 -1.11,-1.13 z" id="path819"></path><path class="cls-1" d="m 284.05,263.43 h -15.2 c -5.7,0 -10.41,4.35 -10.97,9.9 h 2.25 c 0.55,-4.32 4.25,-7.67 8.72,-7.67 h 15.2 c 0.62,0 1.11,-0.49 1.11,-1.11 0,-0.62 -0.49,-1.11 -1.11,-1.11 z" id="path821"></path><path class="cls-1" d="m 230.45,273.33 h -2.22 C 227.65,264.22 220.05,257 210.78,257 h -15.19 c -0.62,0 -1.12,-0.51 -1.12,-1.12 0,-0.61 0.5,-1.12 1.12,-1.12 h 15.19 c 10.5,0 19.1,8.24 19.67,18.57 z" id="path823"></path><path class="cls-1" d="m 221.77,273.33 h -2.25 c -0.56,-4.31 -4.27,-7.67 -8.74,-7.67 h -15.19 c -0.62,0 -1.12,-0.49 -1.12,-1.11 0,-0.62 0.5,-1.12 1.12,-1.12 h 15.19 c 5.72,0 10.43,4.35 10.99,9.9 z" id="path825"></path><path class="cls-1" d="m 292.81,231.52 c -33.67,-15.47 -72.3,-15.47 -105.97,0 -0.79,0.36 -1.31,1.15 -1.31,2.03 v 91.87 c 0,29.92 24.36,54.28 54.29,54.28 29.93,0 54.29,-24.36 54.29,-54.28 v -91.87 c 0,-0.88 -0.51,-1.67 -1.3,-2.03 z m -67.68,-6.24 c 9.76,-1.19 19.63,-1.19 29.38,0 l -0.02,0.05 c -2.43,5.81 -8.19,9.79 -14.67,9.79 -6.48,0 -12.27,-4 -14.69,-9.83 -0.07,0.01 -0.12,0.01 -0.13,0.01 0.02,-0.01 0.06,-0.01 0.13,-0.02 z m 23.63,9.71 c 1.62,-0.93 3.09,-2.09 4.35,-3.45 l 14.94,13.9 c -4.9,0.27 -9.49,1.77 -13.44,4.2 h -0.01 z m 4.07,15.83 c -6.38,4.57 -10.85,11.67 -11.91,19.81 l -0.04,-33.3 c 2.11,-0.12 4.14,-0.61 6.01,-1.41 z m -20.05,-14.89 c 1.88,0.8 3.91,1.28 6.02,1.4 l 0.04,33.3 c -1.09,-8.33 -5.39,-15.04 -12,-19.79 z m -7.71,13.73 c -3.97,-2.43 -8.56,-3.94 -13.47,-4.22 l 14.95,-13.88 c 1.26,1.35 2.74,2.52 4.35,3.44 z M 190,325.42 v -38.89 h 48.7 v 43.69 l -5.07,-5.06 c -0.2,-0.22 -0.49,-0.33 -0.78,-0.33 h -5.6 v -2.38 h 2.4 c 0.12,0 0.23,-0.01 0.33,-0.04 2.15,-0.68 3.6,-2.64 3.6,-4.89 0,-1.59 -0.73,-3.05 -1.91,-4 1.18,-0.95 1.91,-2.39 1.91,-3.98 0,-1.97 -1.1,-3.72 -2.82,-4.57 v -3.59 c 0,-2.14 -1.43,-3.96 -3.39,-4.54 -0.01,-0.1 -0.06,-0.2 -0.11,-0.29 -2.98,-4.87 -7.96,-7.78 -13.33,-7.78 -5.37,0 -10.37,2.91 -13.33,7.78 -0.06,0.09 -0.1,0.17 -0.12,0.26 v 0 c -2.02,0.53 -3.51,2.39 -3.51,4.57 v 3.59 c -1.71,0.85 -2.82,2.6 -2.82,4.57 0,1.59 0.74,3.03 1.92,3.98 -1.18,0.95 -1.92,2.41 -1.92,4 0,2.25 1.46,4.21 3.61,4.89 0.1,0.03 0.22,0.04 0.33,0.04 h 2.49 v 2.38 h -5.69 c -0.3,0 -0.58,0.11 -0.79,0.33 l -3.97,3.97 v -0.02 c -0.09,-1.22 -0.13,-2.44 -0.13,-3.69 z m 31.58,-2.99 -4.27,-4.28 c -0.22,-0.21 -0.5,-0.33 -0.8,-0.33 h -5.04 c -0.29,0 -0.58,0.12 -0.78,0.33 l -4.29,4.28 c -0.2,0.21 -0.32,0.49 -0.32,0.79 v 5.19 h -3.27 v -6.71 l 8.12,-8.95 2.3,1.65 c 0.19,0.14 0.42,0.21 0.65,0.21 0.23,0 0.45,-0.07 0.63,-0.2 l 2.39,-1.66 8.12,8.95 v 6.71 h -3.11 v -5.19 c 0,-0.3 -0.12,-0.58 -0.33,-0.79 z m -23.16,-10.15 c -1.22,-0.37 -2.03,-1.48 -2.03,-2.74 0,-1.26 0.81,-2.39 2.03,-2.76 0.47,-0.14 0.78,-0.58 0.78,-1.07 v -4.33 c 0,-0.96 0.54,-1.78 1.32,-2.19 v 15 c 0,0.21 0.06,0.43 0.18,0.6 l 2.23,3.45 -1.8,1.98 h -2.86 c -1.13,-0.42 -1.88,-1.48 -1.88,-2.7 0,-1.22 0.81,-2.37 2.03,-2.75 0.47,-0.14 0.78,-0.58 0.78,-1.07 v -0.35 c 0,-0.49 -0.31,-0.92 -0.78,-1.07 z m 26.66,-13.51 v 3.72 h -7.98 c -0.62,0 -1.11,0.5 -1.11,1.11 v 7.06 l -2.1,1.47 -2.04,-1.46 v -7.07 c 0,-0.61 -0.51,-1.11 -1.12,-1.11 h -7.98 v -3.72 z m -21.79,-2.23 c 2.6,-3.48 6.49,-5.52 10.64,-5.52 4.15,0 8.02,2.04 10.62,5.52 z m 14.93,9.39 v -1.21 h 6.86 v 9.15 l -1.65,2.75 -5.21,-5.75 v -2.7 h 3.14 v -2.24 z m -8.6,-1.21 v 1.21 h -3.1 v 2.24 h 3.1 v 2.7 l -5.14,5.66 -1.73,-2.67 v -9.14 z m 15.38,13.62 2.14,-3.58 c 0.11,-0.18 0.17,-0.37 0.17,-0.57 v -14.95 c 0.73,0.43 1.22,1.23 1.22,2.14 v 4.33 c 0,0.49 0.32,0.93 0.79,1.07 1.21,0.37 2.02,1.49 2.02,2.76 0,1.27 -0.81,2.37 -2.02,2.74 -0.47,0.15 -0.79,0.58 -0.79,1.07 v 0.35 c 0,0.49 0.32,0.93 0.79,1.07 1.21,0.38 2.02,1.49 2.02,2.75 0,1.26 -0.74,2.28 -1.88,2.7 h -2.75 z m -31.96,24.22 h 15.5 v 1.95 c 0,5.46 -1.67,10.81 -4.74,15.29 -4.68,-4.9 -8.38,-10.75 -10.76,-17.24 z m 24.75,27.54 c -4.48,-2.22 -8.59,-5.11 -12.18,-8.5 3.53,-4.97 5.45,-10.98 5.45,-17.09 v -1.95 l 19.67,0.03 c -0.21,2.52 -1.1,5.08 -2.33,7.62 -0.5,-2.31 -1.99,-4.41 -4.28,-5.56 l -3.13,-1.59 c -0.55,-0.28 -1.21,-0.05 -1.5,0.5 -0.98,1.93 -1.15,4.13 -0.46,6.18 0.68,2.06 2.1,3.74 4.04,4.72 l 2.33,1.19 c -0.43,0.75 -0.89,1.49 -1.34,2.22 -1.81,2.96 -3.68,6.02 -4.92,8.97 z m 8.33,-16.61 -2.04,-1.02 c -1.41,-0.72 -2.45,-1.92 -2.94,-3.42 -0.37,-1.13 -0.38,-2.33 -0.07,-3.45 l 2.04,1.05 c 2.56,1.28 3.76,4.18 3.01,6.84 z m 12.21,21.72 c -3.75,-0.11 -7.42,-0.64 -10.92,-1.53 l 7.95,-12.53 c 1.16,-1.84 2.16,-3.76 2.97,-5.76 z m 0,-27.93 c -0.75,4.49 -2.39,8.8 -4.86,12.67 l -8.3,13.09 c -1.84,-0.57 -3.64,-1.23 -5.36,-2 h -0.01 l 1.4,-3.34 c 1.17,-2.79 2.92,-5.65 4.76,-8.67 3.26,-5.31 6.63,-10.8 7.01,-16.47 h 5.36 z m 0.37,-6.91 h -46.4 c -0.86,-2.7 -1.5,-5.52 -1.85,-8.39 v 0 c 0,0 4.91,-4.92 4.91,-4.92 h 5.22 v 2.46 c 0,0.61 0.49,1.12 1.11,1.12 h 4.39 v 2.64 l -1.18,0.89 1.34,1.78 1.63,-1.22 c 0.28,-0.2 0.45,-0.54 0.45,-0.89 v -10.16 l 3.61,-3.62 h 4.12 l 3.63,3.62 v 10.16 c 0,0.29 0.11,0.58 0.33,0.79 l 1.21,1.22 1.59,-1.59 -0.9,-0.88 v -2.74 h 4.23 c 0.61,0 1.11,-0.51 1.11,-1.12 v -2.46 h 5.14 l 6.31,6.32 z m 2.35,34.86 h -0.01 v -19.86 c 0.81,2.01 1.81,3.93 2.99,5.78 l 7.97,12.58 c -3.52,0.88 -7.17,1.4 -10.95,1.5 z m 13.21,-2.13 h -0.01 l -8.34,-13.15 c -2.48,-3.9 -4.12,-8.23 -4.87,-12.75 v -4.64 h 6.33 c 0.38,5.67 3.74,11.16 6.99,16.47 1.86,3.02 3.61,5.88 4.77,8.67 l 1.28,3.07 c -1.98,0.91 -4.04,1.68 -6.15,2.33 z m 8.17,-3.29 -1.24,-2.97 c -0.71,-1.71 -1.64,-3.45 -2.64,-5.19 0.14,0 0.28,-0.05 0.41,-0.12 l 3.14,-1.58 c 3.99,-2.01 5.59,-6.92 3.58,-10.9 -0.29,-0.55 -0.95,-0.78 -1.51,-0.49 l -3.12,1.58 c -3.18,1.61 -4.84,5.03 -4.38,8.37 -0.13,-0.21 -0.26,-0.43 -0.39,-0.64 -3.09,-5.03 -6.25,-10.21 -6.68,-15.28 l 19.68,-0.03 v 1.95 c 0,5.95 1.81,11.79 5.17,16.69 -3.54,3.43 -7.59,6.34 -12.02,8.61 z m -0.39,-17.68 2.06,-1.02 c 0.74,2.64 -0.46,5.56 -3.01,6.84 l -2.04,1.04 c -0.75,-2.65 0.44,-5.55 2.99,-6.86 z m 14.21,7.24 c 0,0 -0.01,0 -0.01,0.01 -2.88,-4.4 -4.45,-9.59 -4.45,-14.87 v -1.95 h 14.8 c -2.3,6.29 -5.85,12 -10.34,16.81 z m 13.38,-33.95 c 0,5.2 -0.79,10.22 -2.28,14.94 v 0 c 0,0 -46.41,0.01 -46.41,0.01 v -53.84 h 48.7 v 38.89 z m 0,-41.12 H 190 v -49.31 c 10.58,-4.7 21.64,-7.84 32.86,-9.41 0.05,0 0.07,0 0.08,0 -0.01,0 -0.04,0 -0.08,0.02 0.58,1.57 1.39,3.04 2.36,4.36 l -16.49,15.31 0.12,0.13 h -13.26 c -0.62,0 -1.12,0.5 -1.12,1.12 0,0.62 0.5,1.11 1.12,1.11 h 14.33 c 14.43,0 26.22,11.44 26.81,25.71 h -41.15 c -0.61,0.01 -1.11,0.51 -1.11,1.11 0,0.6 0.5,1.13 1.11,1.13 h 88.47 c 0.62,0 1.11,-0.51 1.11,-1.13 0,-0.62 -0.49,-1.1 -1.11,-1.1 h -41.13 c 0.59,-14.28 12.39,-25.71 26.8,-25.71 h 14.33 c 0.62,0 1.11,-0.51 1.11,-1.12 0,-0.61 -0.49,-1.11 -1.11,-1.11 H 269.3 c 0.14,0 0.28,0 0.42,0 h 1.34 l -16.63,-15.46 c 0.96,-1.31 2.36,-4.36 2.36,-4.36 11.23,1.57 22.28,4.72 32.84,9.42 v 49.31 z" id="path827"></path><path class="cls-1" d="m 281.39,297.28 c -1.1,-1.11 -2.58,-1.73 -4.15,-1.74 -1.58,-0.07 -3.05,0.6 -4.16,1.7 -0.11,0.11 -0.18,0.23 -0.28,0.34 -2.31,-0.59 -4.27,-0.33 -5.8,0.78 -1.06,0.77 -1.89,1.9 -2.48,3.42 -0.58,-1.52 -1.39,-2.66 -2.44,-3.44 -1.51,-1.12 -3.44,-1.39 -5.75,-0.85 -0.1,-0.11 -0.17,-0.23 -0.28,-0.34 -2.28,-2.3 -6.01,-2.32 -8.31,-0.04 -2.3,2.28 -2.32,6.01 -0.04,8.31 0.1,0.1 0.22,0.18 0.33,0.28 -0.58,2.29 -0.32,4.23 0.78,5.76 0.77,1.06 1.9,1.89 3.42,2.48 -1.53,0.58 -2.67,1.39 -3.45,2.45 -1.12,1.52 -1.4,3.46 -0.84,5.78 -0.11,0.09 -0.23,0.17 -0.33,0.27 -1.11,1.11 -1.73,2.58 -1.74,4.15 0,1.57 0.6,3.05 1.7,4.16 1.15,1.16 2.66,1.74 4.18,1.74 1.52,0 2.99,-0.56 4.13,-1.7 0.11,-0.11 0.2,-0.25 0.3,-0.37 2.29,0.56 4.23,0.3 5.75,-0.81 1.05,-0.77 1.87,-1.89 2.46,-3.4 0.58,1.53 1.39,2.67 2.45,3.45 1.01,0.75 2.21,1.12 3.59,1.12 0.67,0 1.4,-0.12 2.16,-0.3 0.11,0.13 0.19,0.27 0.31,0.39 1.15,1.16 2.66,1.74 4.18,1.74 1.52,0 2.99,-0.56 4.14,-1.7 2.3,-2.28 2.32,-6.01 0.04,-8.31 -0.12,-0.12 -0.25,-0.21 -0.37,-0.31 0.58,-2.29 0.32,-4.23 -0.78,-5.76 -0.77,-1.06 -1.9,-1.89 -3.42,-2.48 1.52,-0.58 2.66,-1.38 3.44,-2.43 1.12,-1.51 1.4,-3.44 0.86,-5.73 0.12,-0.1 0.25,-0.19 0.37,-0.3 2.3,-2.28 2.32,-6.01 0.04,-8.31 z m -4.18,0.49 h 0.02 c 0.97,0 1.89,0.39 2.57,1.08 1.42,1.43 1.4,3.74 -0.02,5.16 -0.3,0.3 -0.64,0.52 -1.01,0.7 -0.06,0.03 -0.12,0.07 -0.19,0.09 -0.2,0.08 -0.41,0.14 -0.62,0.19 -0.07,0.02 -0.15,0.02 -0.22,0.03 -0.14,0.02 -0.29,0.04 -0.44,0.04 -0.1,0 -0.19,0 -0.29,-0.01 -0.13,0 -0.26,-0.02 -0.39,-0.04 -0.1,-0.02 -0.19,-0.03 -0.28,-0.06 -0.13,-0.03 -0.25,-0.07 -0.37,-0.12 -0.08,-0.03 -0.16,-0.06 -0.24,-0.09 -0.16,-0.07 -0.31,-0.15 -0.45,-0.25 -0.04,-0.02 -0.08,-0.04 -0.11,-0.07 -0.19,-0.13 -0.37,-0.28 -0.54,-0.44 -0.17,-0.17 -0.31,-0.35 -0.44,-0.54 -0.02,-0.03 -0.03,-0.06 -0.05,-0.09 -0.1,-0.15 -0.18,-0.31 -0.25,-0.48 -0.03,-0.07 -0.06,-0.15 -0.08,-0.22 -0.05,-0.13 -0.09,-0.27 -0.12,-0.4 -0.02,-0.08 -0.04,-0.17 -0.05,-0.25 -0.02,-0.15 -0.04,-0.29 -0.04,-0.44 0,-0.07 0,-0.14 0,-0.22 0,-0.19 0.02,-0.38 0.06,-0.56 0,-0.03 0,-0.07 0.01,-0.1 0.14,-0.69 0.49,-1.33 1,-1.84 0.69,-0.68 1.6,-1.06 2.57,-1.06 z m -27.9,0.94 c 0.71,-0.7 1.64,-1.05 2.57,-1.05 0.93,0 1.88,0.36 2.59,1.08 v 0 c 0.25,0.25 0.44,0.54 0.6,0.84 0.12,0.23 0.22,0.46 0.29,0.7 0.02,0.08 0.06,0.16 0.07,0.25 0.03,0.12 0.04,0.25 0.05,0.38 0,0.09 0.02,0.18 0.03,0.27 0,0.13 0,0.27 -0.01,0.4 0,0.08 -0.01,0.16 -0.02,0.24 -0.02,0.14 -0.05,0.28 -0.08,0.42 -0.02,0.06 -0.04,0.13 -0.06,0.19 -0.05,0.14 -0.1,0.28 -0.16,0.42 -0.03,0.06 -0.06,0.12 -0.1,0.18 -0.07,0.13 -0.14,0.26 -0.22,0.38 -0.05,0.08 -0.12,0.15 -0.18,0.22 -0.08,0.09 -0.15,0.19 -0.23,0.27 -0.07,0.07 -0.14,0.12 -0.21,0.18 -0.1,0.08 -0.19,0.17 -0.3,0.24 -0.09,0.06 -0.19,0.11 -0.29,0.17 -0.09,0.05 -0.18,0.1 -0.28,0.15 -0.11,0.05 -0.22,0.09 -0.34,0.12 -0.09,0.03 -0.18,0.06 -0.28,0.08 -0.12,0.03 -0.23,0.05 -0.35,0.07 -0.1,0.01 -0.2,0.02 -0.3,0.03 -0.12,0 -0.24,0.01 -0.36,0 -0.1,0 -0.19,-0.02 -0.28,-0.03 -0.13,-0.02 -0.26,-0.03 -0.39,-0.06 -0.02,0 -0.04,-0.01 -0.06,-0.02 -0.38,-0.09 -0.75,-0.25 -1.08,-0.47 -0.01,0 -0.03,0 -0.04,-0.01 -0.21,-0.14 -0.41,-0.3 -0.59,-0.48 -0.69,-0.69 -1.06,-1.61 -1.06,-2.59 0,-0.97 0.39,-1.89 1.08,-2.57 z m 1.31,11.46 c -0.61,-0.84 -0.8,-1.94 -0.57,-3.29 0.11,0.04 0.22,0.06 0.34,0.09 0.14,0.04 0.27,0.08 0.41,0.1 0.3,0.06 0.61,0.09 0.92,0.09 0.04,0 0.09,0.01 0.13,0.01 0,0 0.02,0 0.03,0 0.09,0 0.17,-0.02 0.26,-0.03 0.2,0 0.41,-0.03 0.61,-0.06 0.14,-0.02 0.27,-0.04 0.41,-0.07 0.29,-0.06 0.58,-0.15 0.85,-0.26 0.12,-0.05 0.23,-0.1 0.34,-0.16 0.2,-0.09 0.39,-0.19 0.58,-0.31 0.11,-0.06 0.21,-0.13 0.31,-0.2 0.23,-0.16 0.45,-0.34 0.66,-0.54 0.04,-0.03 0.08,-0.06 0.12,-0.09 0.03,-0.03 0.06,-0.07 0.09,-0.11 0.2,-0.21 0.38,-0.42 0.54,-0.65 0.08,-0.12 0.16,-0.24 0.23,-0.36 0.1,-0.16 0.18,-0.32 0.26,-0.49 0.07,-0.14 0.14,-0.28 0.2,-0.43 0.1,-0.26 0.18,-0.52 0.24,-0.79 0.04,-0.17 0.06,-0.34 0.09,-0.51 0.02,-0.17 0.04,-0.33 0.05,-0.5 0,-0.11 0.03,-0.21 0.03,-0.32 0,-0.05 -0.01,-0.11 -0.01,-0.16 0,-0.29 -0.03,-0.59 -0.08,-0.88 -0.02,-0.13 -0.06,-0.26 -0.09,-0.4 -0.03,-0.12 -0.05,-0.24 -0.08,-0.36 1.35,-0.21 2.43,-0.02 3.27,0.61 1.7,1.26 2.6,4.42 2.61,9.13 -0.23,2.96 -3.24,3.54 -3.65,3.6 -4.71,-0.05 -7.85,-0.99 -9.09,-2.71 z m -1.46,19.03 c -0.69,-0.69 -1.06,-1.61 -1.06,-2.58 0,-0.97 0.39,-1.89 1.08,-2.57 0.19,-0.19 0.41,-0.35 0.63,-0.49 0.51,-0.32 1.07,-0.49 1.65,-0.53 0.04,0 0.08,0 0.12,-0.01 0.17,0 0.34,0 0.51,0.02 0.04,0 0.08,0 0.12,0.01 0.17,0.02 0.34,0.05 0.51,0.1 0.03,0 0.06,0.02 0.09,0.03 0.17,0.05 0.33,0.11 0.49,0.18 0.04,0.02 0.08,0.05 0.13,0.07 0.14,0.07 0.28,0.15 0.41,0.24 0.17,0.12 0.34,0.26 0.5,0.41 0.16,0.16 0.29,0.33 0.41,0.51 0.08,0.11 0.14,0.24 0.2,0.36 0.03,0.06 0.07,0.12 0.1,0.19 0.06,0.14 0.11,0.29 0.16,0.43 0.02,0.05 0.03,0.11 0.05,0.16 0.04,0.15 0.07,0.29 0.09,0.44 0,0.07 0.02,0.15 0.02,0.22 0.01,0.13 0.02,0.27 0.01,0.4 0,0.12 -0.02,0.24 -0.04,0.35 -0.01,0.09 -0.02,0.19 -0.04,0.28 -0.15,0.68 -0.49,1.31 -0.99,1.81 -1.43,1.42 -3.74,1.41 -5.16,-0.03 z m 30.49,0.15 c -1.43,1.42 -3.74,1.41 -5.16,-0.02 -0.2,-0.2 -0.36,-0.42 -0.5,-0.64 0,0 0,-0.01 0,-0.02 -0.15,-0.25 -0.26,-0.51 -0.35,-0.77 -0.05,-0.14 -0.09,-0.28 -0.12,-0.42 -0.01,-0.05 -0.01,-0.1 -0.02,-0.15 -0.03,-0.18 -0.05,-0.36 -0.05,-0.54 0,-0.04 0,-0.08 0,-0.13 0,-0.18 0.02,-0.37 0.05,-0.55 0,-0.05 0.02,-0.09 0.03,-0.14 0.04,-0.17 0.09,-0.34 0.15,-0.5 0.02,-0.05 0.04,-0.11 0.06,-0.16 0.07,-0.16 0.15,-0.31 0.24,-0.45 0.03,-0.05 0.06,-0.1 0.09,-0.15 0.13,-0.19 0.27,-0.37 0.44,-0.54 0.16,-0.16 0.34,-0.31 0.53,-0.43 0.04,-0.03 0.09,-0.05 0.14,-0.08 0.15,-0.09 0.3,-0.18 0.47,-0.25 0.04,-0.02 0.09,-0.03 0.13,-0.05 0.18,-0.07 0.36,-0.12 0.54,-0.16 0.03,0 0.06,-0.01 0.09,-0.02 0.21,-0.04 0.43,-0.06 0.65,-0.06 0.02,0 0.03,0 0.05,0 0.48,0 0.94,0.1 1.37,0.27 0.1,0.04 0.2,0.11 0.31,0.16 0.32,0.17 0.63,0.38 0.9,0.64 1.42,1.43 1.4,3.74 -0.02,5.16 z m -1.36,-11.5 c 0.61,0.85 0.8,1.95 0.57,3.3 -0.18,-0.06 -0.36,-0.1 -0.54,-0.14 -0.02,0 -0.05,-0.01 -0.07,-0.02 -0.76,-0.16 -1.54,-0.16 -2.29,0 0,0 -0.02,0 -0.03,0 -0.36,0.07 -0.71,0.18 -1.05,0.32 -0.03,0.01 -0.07,0.03 -0.1,0.05 -0.27,0.12 -0.54,0.26 -0.8,0.42 -0.08,0.05 -0.15,0.09 -0.22,0.15 -0.27,0.19 -0.54,0.4 -0.79,0.64 0,0 -0.01,0 -0.02,0.01 0,0 0,0 0,0 -0.26,0.26 -0.48,0.53 -0.68,0.82 -0.05,0.07 -0.09,0.13 -0.13,0.2 -0.39,0.61 -0.66,1.28 -0.8,1.98 0,0.01 0,0.03 0,0.04 -0.07,0.36 -0.11,0.72 -0.11,1.09 0,0 0,0 0,0.01 0,0.37 0.03,0.73 0.1,1.1 0,0.03 0.02,0.07 0.02,0.1 0.04,0.19 0.08,0.38 0.14,0.56 -1.36,0.22 -2.45,0.03 -3.3,-0.6 -1.7,-1.25 -2.6,-4.4 -2.61,-9.1 0,0 0,-0.02 0,-0.03 0.21,-2.88 3.04,-3.52 3.6,-3.61 4.73,0.05 7.88,0.99 9.13,2.71 z m 0.65,-10.81 c 0.21,1.34 0,2.42 -0.62,3.26 -1.27,1.71 -4.45,2.61 -9.19,2.61 -0.01,0 -0.02,0 -0.03,0 -0.03,0 -0.06,-0.01 -0.1,0 -1.83,0.23 -5.37,1.72 -5.66,5.68 0,0 0,0 0,0 0,0.03 -0.02,0.05 -0.02,0.08 -0.04,4.74 -0.98,7.9 -2.7,9.15 -0.85,0.62 -1.93,0.82 -3.27,0.59 0.29,-0.92 0.34,-1.89 0.17,-2.82 0,-0.03 -0.01,-0.07 -0.02,-0.1 -0.07,-0.35 -0.16,-0.69 -0.3,-1.02 -0.02,-0.04 -0.04,-0.07 -0.05,-0.11 -0.12,-0.27 -0.25,-0.54 -0.41,-0.79 -0.05,-0.09 -0.11,-0.17 -0.16,-0.26 -0.2,-0.29 -0.41,-0.56 -0.66,-0.82 -0.23,-0.23 -0.49,-0.44 -0.75,-0.62 -0.13,-0.09 -0.25,-0.17 -0.39,-0.25 -0.13,-0.08 -0.27,-0.15 -0.4,-0.22 -0.59,-0.3 -1.22,-0.49 -1.88,-0.57 -0.1,-0.01 -0.21,-0.02 -0.31,-0.03 -0.14,-0.01 -0.27,-0.04 -0.41,-0.04 0,0 -0.02,0 -0.03,0 -0.52,0 -1.03,0.09 -1.52,0.22 -0.08,0.02 -0.17,0.03 -0.25,0.06 -0.23,-1.37 -0.03,-2.46 0.6,-3.31 1.26,-1.71 4.45,-2.62 9.2,-2.62 0,0 0,0 0,0 0.05,0 0.09,0 0.14,0 1.83,-0.23 5.37,-1.72 5.66,-5.68 0,-0.01 0,-0.02 0,-0.04 0,-0.01 0,-0.02 0,-0.04 0.04,-4.75 0.98,-7.93 2.71,-9.18 0.86,-0.62 1.95,-0.81 3.32,-0.57 -0.07,0.21 -0.11,0.41 -0.15,0.62 0,0.02 -0.01,0.04 -0.01,0.06 -0.07,0.34 -0.1,0.69 -0.1,1.03 0,0.08 0,0.15 0,0.23 0,0.27 0.03,0.53 0.07,0.8 0.01,0.09 0.03,0.18 0.04,0.27 0.07,0.33 0.16,0.65 0.28,0.96 0.02,0.05 0.04,0.09 0.06,0.14 0.12,0.28 0.26,0.56 0.43,0.82 0.04,0.06 0.07,0.12 0.11,0.18 0.2,0.3 0.42,0.59 0.68,0.86 0.26,0.26 0.55,0.49 0.85,0.69 0.04,0.03 0.08,0.05 0.12,0.08 1.29,0.85 2.84,1.15 4.33,0.85 0.03,0 0.05,-0.01 0.07,-0.02 0.18,-0.04 0.36,-0.07 0.54,-0.13 z" id="path829"></path></g></g></svg>